<?xml version="1.0" encoding="UTF-8"?>
<svg width="48px" height="48px" viewBox="0 0 48 48" version="1.1" xmlns="http://www.w3.org/2000/svg" xmlns:xlink="http://www.w3.org/1999/xlink">
    <!-- Generator: Sketch 48.1 (47250) - http://www.bohemiancoding.com/sketch -->
    <title>ic_launcher</title>
    <desc>Created with Sketch.</desc>
    <defs>
        <circle id="path-1" cx="15" cy="15" r="15"></circle>
    </defs>
    <g id="Page-1" stroke="none" stroke-width="1" fill="none" fill-rule="evenodd">
        <g id="ic_launcher">
            <circle id="Oval" fill="#FFFFFF" cx="24" cy="24" r="22"></circle>
            <g id="Group-2" transform="translate(9.000000, 9.000000)">
                <mask id="mask-2" fill="white">
                    <use xlink:href="#path-1"></use>
                </mask>
                <g id="Mask">
                    <use fill="#57DB90" xlink:href="#path-1"></use>
                    <use fill-opacity="0.103826993" fill="#000000" xlink:href="#path-1"></use>
                </g>
                <path d="M20.8373522,12.5820896 L33.9402985,12.5820896 L33.9402985,17.4179104 L20.8373522,17.4179104 L30.1025344,26.6830926 L26.6830926,30.1025344 L17.4179104,20.8373522 L17.4179104,33.9402985 L12.5820896,33.9402985 L12.5820896,20.8373522 L3.31690736,30.1025344 L-0.102534386,26.6830926 L9.1626478,17.4179104 L-3.94029851,17.4179104 L-3.94029851,12.5820896 L9.1626478,12.5820896 L-0.102534386,3.31690736 L3.31690736,-0.102534386 L12.5820896,9.1626478 L12.5820896,-3.94029851 L17.4179104,-3.94029851 L17.4179104,9.1626478 L26.6830926,-0.102534386 L30.1025344,3.31690736 L20.8373522,12.5820896 Z" id="Combined-Shape" fill-opacity="0.200000003" fill="#000000" mask="url(#mask-2)"></path>
            </g>
            <path d="M11.0587921,39.9670684 C7.20542688,36.8400894 4.5061669,32.3463136 3.69915166,27.2238806 L7.08997493,27.2238806 C7.51546327,27.2238806 7.88059701,26.869907 7.88059701,26.4332585 L7.88059701,21.5667415 C7.88059701,21.1412531 7.52662345,20.7761194 7.08997493,20.7761194 L3.69915166,20.7761194 C4.5061669,15.6536864 7.20542688,11.1599106 11.0587921,8.03293164 L12.753025,10.967429 C12.9657691,11.3359127 13.4548861,11.475141 13.8330348,11.2568168 L18.0475622,8.82355827 C18.4160459,8.61081409 18.5552742,8.12169712 18.33695,7.74354841 L16.640251,4.80477954 C18.9252183,3.92814231 21.4065096,3.44776119 24,3.44776119 C26.5934904,3.44776119 29.0747817,3.92814231 31.359749,4.80477954 L29.66305,7.74354841 C29.4503059,8.11203213 29.5742891,8.605234 29.9524378,8.82355827 L34.1669652,11.2568168 C34.5354489,11.4695609 35.0286508,11.3455777 35.246975,10.967429 L36.9412079,8.03293164 C40.7945731,11.1599106 43.4938331,15.6536864 44.3008483,20.7761194 L40.9100251,20.7761194 C40.4845367,20.7761194 40.119403,21.130093 40.119403,21.5667415 L40.119403,26.4332585 C40.119403,26.8587469 40.4733765,27.2238806 40.9100251,27.2238806 L44.3008483,27.2238806 C43.4938331,32.3463136 40.7945731,36.8400894 36.9412079,39.9670684 L35.246975,37.032571 C35.0342309,36.6640873 34.5451139,36.524859 34.1669652,36.7431832 L29.9524378,39.1764417 C29.5839541,39.3891859 29.4447258,39.8783029 29.66305,40.2564516 L31.359749,43.1952205 C29.0747817,44.0718577 26.5934904,44.5522388 24,44.5522388 C21.4065096,44.5522388 18.9252183,44.0718577 16.640251,43.1952205 L18.33695,40.2564516 C18.5496941,39.8879679 18.4257109,39.394766 18.0475622,39.1764417 L13.8330348,36.7431832 C13.4645511,36.5304391 12.9713492,36.6544223 12.753025,37.032571 L11.0587921,39.9670684 Z M24,37.7014925 C31.5671254,37.7014925 37.7014925,31.5671254 37.7014925,24 C37.7014925,16.4328746 31.5671254,10.2985075 24,10.2985075 C16.4328746,10.2985075 10.2985075,16.4328746 10.2985075,24 C10.2985075,31.5671254 16.4328746,37.7014925 24,37.7014925 Z M24,36.0895522 C17.3231247,36.0895522 11.9104478,30.6768753 11.9104478,24 C11.9104478,17.3231247 17.3231247,11.9104478 24,11.9104478 C30.6768753,11.9104478 36.0895522,17.3231247 36.0895522,24 C36.0895522,30.6768753 30.6768753,36.0895522 24,36.0895522 Z" id="Colored" fill="#57DB90"></path>
            <path d="M27.4978954,26.0533443 C25.5626474,25.6403956 22.681872,27.0070355 23.1182031,30.221961 C23.1182031,27.1192433 25.8457351,26.261914 27.4636392,26.2024981 L26.9363432,28.4983851 C26.9363432,28.4983851 27.6693792,27.0205995 27.8899462,26.1679749 C27.8910281,26.1674542 27.891535,26.1671666 27.891535,26.1671666 C27.8911155,26.1670103 27.8906959,26.1668541 27.8902763,26.166698 C27.8971122,26.1402308 27.903453,26.1143679 27.9092613,26.0891724 C28.5067343,25.9264878 28.9448592,25.4971524 29.7031125,24.6486122 C31.1587542,23.0223083 32.5861869,22.9784087 33.0286075,23.8650635 C33.1233439,24.055285 33.139572,24.2430545 33.0975076,24.4306399 C32.7411424,25.1209022 31.7639461,25.8246136 31.1112205,26.6476625 C30.3381924,27.6231432 29.4752501,28.3978506 29.0499095,29.4389744 C27.1935327,33.9804743 21.8477279,33.9736734 19.596663,31.8858076 C19.7110517,32.018517 19.8370364,32.1444976 19.973302,32.2632573 C19.4878734,31.8978625 19.1095311,31.4499531 18.8875539,30.937796 C18.0130751,28.9195733 18.5450161,25.2141073 18.5450161,25.2141073 L17.0499395,20.166529 C16.866581,19.5476035 17.2022105,18.9197249 17.8259746,18.7568345 C17.9381611,18.7274748 18.0506076,18.7154811 18.1606624,18.719145 C18.5717338,18.8182846 18.9186072,19.1356092 19.0469605,19.5732837 L20.2263539,23.5934824 L20.8297713,24.085806 L19.472885,19.4612172 C19.3959858,19.1990123 19.2408636,18.9795675 19.0404975,18.8243329 L18.868556,18.2439033 C18.7724359,17.92782 18.8096592,17.5860194 18.9715441,17.2982226 C19.133429,17.0104259 19.4058213,16.8017962 19.7251883,16.7209943 L19.7292182,16.7198391 C19.9602215,16.6593059 20.1951586,16.6668318 20.4119433,16.7300057 C20.7379074,16.8868916 20.9997519,17.1758334 21.1088554,17.5478084 L22.7865717,23.2664495 L23.0441608,23.4970359 L23.078014,23.6113154 L23.0941374,23.5417736 L23.4095483,23.8241205 L23.1967901,23.0990221 L24.5826044,17.1218662 C24.7616452,16.3495813 25.4907613,15.8620656 26.2092271,16.0347755 C26.6371798,16.1372237 26.9653101,16.4504215 27.1230405,16.850033 C27.1596293,17.0515165 27.1567313,17.2657023 27.1074136,17.4806868 L25.7403099,23.4326272 L25.8165244,23.6537384 L25.5171052,24.9451634 L25.8165366,23.6537738 L25.9919527,24.1626853 L27.4411739,17.854041 C27.7009751,17.650819 28.0365204,17.5632114 28.3698058,17.6428842 L28.3764263,17.6446171 C28.7698529,17.7390864 29.0639833,18.0441279 29.1818631,18.4194489 C29.195771,18.5547656 29.188084,18.6947938 29.1558798,18.8343548 L27.4978954,26.0533443 Z" id="Hand" fill="#FFFFFF" fill-rule="nonzero"></path>
        </g>
    </g>
</svg>