<?xml version="1.0" encoding="UTF-8"?>
<svg width="128px" height="128px" viewBox="0 0 128 128" version="1.1" xmlns="http://www.w3.org/2000/svg" xmlns:xlink="http://www.w3.org/1999/xlink">
    <!-- Generator: Sketch 48.2 (47327) - http://www.bohemiancoding.com/sketch -->
    <title>src/svg/Cog</title>
    <desc>Created with Sketch.</desc>
    <defs></defs>
    <g id="Assets" stroke="none" stroke-width="1" fill="none" fill-rule="evenodd">
        <g id="src/svg/Cog" fill="#FF00FF" fill-rule="nonzero">
            <path d="M64,41.1162791 C51.3488372,41.1162791 41.1162791,51.3488372 41.1162791,64 C41.1162791,76.6511628 51.3488372,86.8837209 64,86.8837209 C76.6511628,86.8837209 86.8837209,76.6511628 86.8837209,64 C86.8837209,51.3488372 76.6511628,41.1162791 64,41.1162791 Z M64,79.627907 C55.255814,79.627907 48.372093,72.744186 48.372093,64 C48.372093,55.255814 55.255814,48.372093 64,48.372093 C72.744186,48.372093 79.627907,55.255814 79.627907,64 C79.627907,72.744186 72.744186,79.627907 64,79.627907 Z M110.883721,53.7674419 C110.511628,52.2790698 109.395349,51.3488372 107.906977,51.1627907 L100.093023,50.0465116 C99.7209302,48.9302326 99.9069767,49.4883721 99.3488372,48.372093 L104.186047,42.0465116 C105.116279,40.9302326 105.116279,39.255814 104.372093,37.9534884 C104.372093,37.7674419 102.325581,34.6046512 97.8604651,30.1395349 C93.3953488,25.6744186 90.2325581,23.627907 90.0465116,23.627907 C88.744186,22.8837209 87.0697674,22.8837209 85.9534884,23.8139535 L79.627907,28.6511628 C78.5116279,28.0930233 79.0697674,28.2790698 77.9534884,27.9069767 L76.8372093,20.0930233 C76.6511628,18.6046512 75.7209302,17.4883721 74.2325581,17.1162791 C74.0465116,17.1162791 70.3255814,16 64,16 C57.6744186,16 53.9534884,17.1162791 53.7674419,17.1162791 C52.2790698,17.4883721 51.3488372,18.6046512 51.1627907,20.0930233 L50.0465116,27.9069767 C48.9302326,28.2790698 49.4883721,28.0930233 48.372093,28.6511628 L42.0465116,23.8139535 C40.9302326,22.8837209 39.255814,22.8837209 37.9534884,23.627907 C37.7674419,23.627907 34.6046512,25.6744186 30.1395349,30.1395349 C25.6744186,34.6046512 23.627907,37.7674419 23.627907,37.9534884 C22.8837209,39.255814 22.8837209,40.9302326 23.8139535,42.0465116 L28.6511628,48.372093 C28.0930233,49.4883721 28.2790698,49.1162791 27.9069767,50.2325581 L20.0930233,51.1627907 C18.6046512,51.3488372 17.4883721,52.2790698 17.1162791,53.7674419 C17.1162791,53.9534884 16,57.6744186 16,64 C16,70.3255814 17.1162791,74.0465116 17.1162791,74.2325581 C17.4883721,75.7209302 18.6046512,76.6511628 20.0930233,76.8372093 L27.9069767,77.9534884 C28.2790698,79.0697674 28.0930233,78.5116279 28.6511628,79.627907 L23.8139535,85.9534884 C22.8837209,87.0697674 22.8837209,88.744186 23.627907,90.0465116 C23.627907,90.2325581 25.6744186,93.3953488 30.1395349,97.8604651 C34.6046512,102.325581 37.7674419,104.372093 37.9534884,104.372093 C39.255814,105.116279 40.9302326,105.116279 42.0465116,104.186047 L48.372093,99.3488372 C49.4883721,99.9069767 49.1162791,99.7209302 50.2325581,100.093023 L51.1627907,107.906977 C51.3488372,109.395349 52.2790698,110.511628 53.7674419,110.883721 C53.9534884,110.883721 57.6744186,112 64,112 C70.3255814,112 74.0465116,110.883721 74.2325581,110.883721 C75.7209302,110.511628 76.6511628,109.395349 76.8372093,107.906977 L77.9534884,100.093023 C79.0697674,99.7209302 78.5116279,99.9069767 79.627907,99.3488372 L85.9534884,104.186047 C87.0697674,105.116279 88.744186,105.116279 90.0465116,104.372093 C90.2325581,104.372093 93.3953488,102.325581 97.8604651,97.8604651 C102.325581,93.3953488 104.372093,90.2325581 104.372093,90.0465116 C105.116279,88.744186 105.116279,87.0697674 104.186047,85.9534884 L99.3488372,79.627907 C99.9069767,78.5116279 99.7209302,79.0697674 100.093023,77.9534884 L107.906977,76.8372093 C109.395349,76.6511628 110.511628,75.7209302 110.883721,74.2325581 C110.883721,74.0465116 112,70.3255814 112,64 C112,57.6744186 110.883721,53.9534884 110.883721,53.7674419 Z M104.372093,70.1395349 L96.9302326,71.0697674 C95.627907,71.255814 94.3255814,72.1860465 93.9534884,73.4883721 C92.8372093,76.6511628 93.2093023,75.7209302 91.9069767,78.5116279 C91.3488372,79.8139535 91.5348837,81.3023256 92.2790698,82.4186047 L96.9302326,88.1860465 C96,89.3023256 94.6976744,90.9767442 92.8372093,92.8372093 C90.9767442,94.6976744 89.4883721,96 88.372093,96.9302326 L82.4186047,92.2790698 C81.3023256,91.5348837 79.8139535,91.3488372 78.5116279,91.9069767 C75.3488372,93.3953488 76.8372093,92.8372093 73.4883721,93.9534884 C72.1860465,94.3255814 71.255814,95.627907 71.0697674,96.9302326 L70.1395349,104.372093 C68.6511628,104.55814 66.6046512,104.744186 64,104.744186 C61.3953488,104.744186 59.3488372,104.55814 57.8604651,104.372093 L56.9302326,96.9302326 C56.744186,95.627907 55.8139535,94.3255814 54.5116279,93.9534884 C51.3488372,92.8372093 52.2790698,93.2093023 49.4883721,91.9069767 C48.1860465,91.3488372 46.8837209,91.5348837 45.7674419,92.2790698 L39.8139535,96.9302326 C38.6976744,96 37.0232558,94.6976744 35.1627907,92.8372093 C33.3023256,90.9767442 32.1860465,89.4883721 31.255814,88.372093 L35.7209302,82.4186047 C36.4651163,81.3023256 36.6511628,79.8139535 36.0930233,78.5116279 C34.6046512,75.7209302 35.1627907,76.6511628 34.0465116,73.4883721 C33.6744186,72.1860465 32.372093,71.255814 31.0697674,71.0697674 L23.627907,70.1395349 C23.4418605,68.6511628 23.255814,66.6046512 23.255814,64 C23.255814,61.3953488 23.4418605,59.3488372 23.627907,57.8604651 L31.0697674,56.9302326 C32.372093,56.744186 33.6744186,55.8139535 34.0465116,54.5116279 C34.4186047,53.2093023 34.9767442,52.0930233 34.9767442,51.9069767 C34.9767442,51.9069767 35.5348837,50.6046512 36.0930233,49.4883721 C36.6511628,48.1860465 36.4651163,46.8837209 35.7209302,45.7674419 L31.255814,39.8139535 C32.1860465,38.6976744 33.3023256,37.0232558 35.1627907,35.1627907 C37.0232558,33.3023256 38.6976744,32.1860465 39.8139535,31.255814 L45.7674419,35.7209302 C46.8837209,36.4651163 48.1860465,36.6511628 49.4883721,36.0930233 C52.2790698,34.6046512 51.3488372,35.1627907 54.5116279,34.0465116 C55.8139535,33.6744186 56.744186,32.372093 56.9302326,31.0697674 L57.8604651,23.627907 C59.3488372,23.4418605 61.3953488,23.255814 64,23.255814 C66.6046512,23.255814 68.6511628,23.4418605 70.1395349,23.627907 L71.0697674,31.0697674 C71.255814,32.372093 72.1860465,33.6744186 73.4883721,34.0465116 C76.6511628,35.1627907 75.7209302,34.7906977 78.5116279,36.0930233 C79.8139535,36.6511628 81.3023256,36.4651163 82.4186047,35.7209302 L88.372093,31.255814 C89.4883721,32.1860465 90.9767442,33.3023256 92.8372093,35.1627907 C94.6976744,37.0232558 96,38.6976744 96.9302326,39.8139535 L92.2790698,45.7674419 C91.5348837,46.8837209 91.3488372,48.1860465 91.9069767,49.4883721 C93.3953488,52.6511628 93.0232558,51.1627907 94.1395349,54.5116279 C94.5116279,55.8139535 95.627907,56.744186 96.9302326,56.9302326 L104.372093,57.8604651 C104.55814,59.3488372 104.744186,61.3953488 104.744186,64 C104.744186,66.6046512 104.55814,68.6511628 104.372093,70.1395349 Z" id="Shape"></path>
        </g>
    </g>
</svg>